<?xml version="1.0" ?><!DOCTYPE svg  PUBLIC '-//W3C//DTD SVG 1.1//EN'  'http://www.w3.org/Graphics/SVG/1.1/DTD/svg11.dtd'><svg enable-background="new 0 0 128 128" id="Слой_1" version="1.1" viewBox="0 0 128 128" xml:space="preserve" xmlns="http://www.w3.org/2000/svg" xmlns:xlink="http://www.w3.org/1999/xlink"><g><g><g><path d="M118.7,37.8H36.2c-2.1,0-3.8,1.7-3.8,3.7v63.7c0,2.1,1.7,3.8,3.8,3.8h82.5c2.1,0,3.8-1.7,3.8-3.8V41.5     C122.5,39.4,120.8,37.8,118.7,37.8z" fill="#EAE9EC"/></g></g><g><g><g><path d="M40.7,41.5l81.7-2.2c0,0-1.7-1.5-3.8-1.5H36.2c-2.1,0-3.8,1.7-3.8,3.7v63.7c0,2.1,1.7,3.8,3.8,3.8H34      l3-63.7C37,43.2,38.7,41.5,40.7,41.5z" fill="#FFFFFF"/></g></g></g><g><g><rect fill="#E8EFF1" height="52.5" width="82.5" x="36.2" y="41.5"/></g></g><g><g><polygon fill="#F6F9FA" points="73.8,41.5 118.7,41.5 118.7,94 111.2,94    "/></g></g><g><g><path d="M88.7,109H66.2c0,7.1-1.1,8.9-6,11.2h34.5C89.9,117.9,88.7,116.1,88.7,109z" fill="#EAE9EC"/></g></g><g opacity="0.15"><path d="M32.5,41.5v63.8c0,2.1,1.7,3.8,3.8,3.8h30c0,7.1-1.1,8.9-6,11.2h19.9c1.3-1.3,2.4-2.7,3.5-4.2    c6.1-8.7,7.4-19.9,3.7-29.9l-0.1-0.1l-8.4-20c-0.8-2-0.9-4.3-0.3-6.4l1.7-5.3c1.7-5.4,2.3-11,1.8-16.6H36.2    C34.2,37.8,32.5,39.4,32.5,41.5z" fill="#62345B"/></g><g><g><path d="M118.7,110.5H36.2c-2.9,0-5.2-2.4-5.2-5.2V41.5c0-2.9,2.4-5.2,5.2-5.2h82.5c2.9,0,5.2,2.4,5.2,5.2v63.8     C124,108.1,121.6,110.5,118.7,110.5z M36.2,39.3c-1.2,0-2.2,1-2.2,2.2v63.8c0,1.2,1,2.2,2.2,2.2h82.5c1.2,0,2.2-1,2.2-2.2V41.5     c0-1.2-1-2.2-2.2-2.2H36.2z" fill="#AF9BAC"/></g></g><g><g><path d="M118.7,95.5H36.2c-0.8,0-1.5-0.7-1.5-1.5V41.5c0-0.8,0.7-1.5,1.5-1.5h82.5c0.8,0,1.5,0.7,1.5,1.5V94     C120.2,94.8,119.6,95.5,118.7,95.5z M37.7,92.5h79.5V43H37.7V92.5z" fill="#AF9BAC"/></g></g><g><g><path d="M103.7,121.8H51.2c-0.8,0-1.5-0.7-1.5-1.5s0.7-1.5,1.5-1.5h52.5c0.8,0,1.5,0.7,1.5,1.5     S104.6,121.8,103.7,121.8z" fill="#AF9BAC"/></g></g><g><g><circle cx="77.5" cy="101.5" fill="#AF9BAC" r="1.9"/></g></g><g><g><path d="M94.7,121.8H60.2c-0.7,0-1.3-0.5-1.5-1.2c-0.2-0.7,0.2-1.4,0.8-1.7c4.2-2,5.1-3.2,5.1-9.9     c0-0.8,0.7-1.5,1.5-1.5h22.5c0.8,0,1.5,0.7,1.5,1.5c0,6.7,1,7.9,5.2,9.9c0.6,0.3,1,1,0.8,1.7C96.1,121.3,95.4,121.8,94.7,121.8z      M65.2,118.8h24.6c-1.8-1.8-2.4-4.2-2.5-8.2H67.7C67.6,114.5,67,116.9,65.2,118.8z" fill="#AF9BAC"/></g></g></g><g><g><g><path d="M36.3,28.2c0,3.1-2.6,5.6-5.7,5.6h-1c-5.8,0-10.4-4.7-10.4-10.4v-3.8c0-3.6-4.8-4.8-6.5-1.6     C9.7,24,9,31,11,37.5l4.8,15.8c1.4,4.5,1.2,9.4-0.5,13.8L7.1,89c-6,16,5.8,33,22.9,33h13.5H57c17.1,0,28.9-17,22.9-33l-8.3-19.9     c-1.6-3.8-1.8-8-0.5-11.8l1.7-5.3c2.1-6.8,2.1-14.1,0-21h0c-0.9-2.8-4.9-2.1-4.9,0.8c0,6.9-5.6,12.6-12.6,12.6     c-2.5,0-4.5-2-4.5-4.4L49.8,4H36.9L36.3,28.2z" fill="#888599"/></g></g><g><g><g><path d="M10.1,89l8.2-21.9c1.7-4.4,1.8-9.3,0.5-13.8L14,37.5C12,31,12.7,24,15.8,17.9c0.4-0.7,0.9-1.2,1.5-1.5      c-1.5-0.7-3.6-0.3-4.5,1.5C9.7,24,9,31,11,37.5l4.8,15.8c1.4,4.5,1.2,9.4-0.5,13.8L7.1,89c-6,16,5.8,33,22.9,33h3      C15.9,122,4.1,105,10.1,89z" fill="#FFFFFF"/></g></g></g><g><g><path d="M73.9,99.3c-0.9,0-1.7-0.3-2.4-0.8l-5.3-4C63,92.1,59,90.8,55,90.8H37.5c-4.1,0-7.9-1.9-10.2-5     c-2.3-3.2-2.9-7.2-1.7-11l3.6-9.3c2.6-6.8,3.2-14.2,1.5-21.4l-0.2-0.8c-0.3-1.1,0-2.3,0.7-3.2c0.7-0.9,1.8-1.4,3-1.4     c0.6,0,1.2,0.2,1.8,0.4l4.5,2.4c3.7,2,11.4,5.8,14.6,5.8c3,0,6-0.9,8.5-2.5c0.7-0.5,1.5-0.7,2.3-0.7c1.3,0,2.6,0.6,3.5,1.7     c0.8,1.1,1.1,2.5,0.8,3.9c-0.1,0.4-0.2,0.9-0.4,1.3l-1.7,5.3c-1.4,4.6-1.2,9.5,0.6,13.9l8.3,19.8c0.7,1.8,1,3.7,0.8,5.6     C77.7,97.8,76,99.3,73.9,99.3z" fill="#FFFFFF"/></g></g><g><g><path d="M36.3,46.1c0,1.1,0.9,2,2,2h10.3c1.1,0,2-0.9,2-2L49.7,4H37.2L36.3,46.1z" fill="#FFE3C1"/></g></g><g><g><path d="M49.1,46.2c0,0.2-0.1,0.3-0.1,0.4c-0.1,0.1-0.2,0.2-0.4,0.2H38.3c-0.2,0-0.3-0.1-0.4-0.2     c-0.1-0.1-0.1-0.2-0.1-0.4L38.7,4h-3l-0.9,42.1c0,0.9,0.3,1.8,1,2.5c0.7,0.7,1.6,1.1,2.5,1.1h10.3c0.9,0,1.8-0.4,2.5-1.1     c0.7-0.7,1-1.6,1-2.5L51.2,4h-3L49.1,46.2z" fill="#62355C"/></g></g><g><g><rect fill="#62355C" height="3" width="11" x="38" y="9"/></g></g><g><g><rect fill="#62355C" height="3" width="12" x="37.5" y="32.5"/></g></g><g><g><rect fill="#62355C" height="3" width="12" x="37.5" y="37.5"/></g></g><g><g><rect fill="#62355C" height="3" width="13" x="37" y="15"/></g></g><g><g><rect fill="#62355C" height="3" width="13" x="37" y="21"/></g></g><g><g><rect fill="#62355C" height="3" width="13" x="37" y="27"/></g></g><g><g><rect fill="#62355C" height="3" width="13" x="37" y="42"/></g></g><g><g><path d="M57,123.5H30c-8.6,0-16.4-4.1-21.3-11.2c-4.9-7.1-6-15.8-3-23.9l8.2-21.9c1.5-4.1,1.7-8.7,0.4-12.9     L9.6,37.9C7.5,31,8.1,23.7,11.4,17.3c1.1-2.1,3.3-3.1,5.5-2.5c2.3,0.5,3.8,2.5,3.8,4.8v3.8c0,4.9,4,8.9,8.9,8.9h1     c2.4,0,4.5-1.9,4.6-4l3,0c-0.1,3.8-3.5,7-7.6,7h-1c-6.6,0-11.9-5.4-11.9-11.9v-3.8c0-1.1-0.8-1.7-1.5-1.9s-1.7,0-2.2,1     c-2.9,5.7-3.5,12.3-1.7,18.4l4.8,15.8c1.4,4.8,1.3,10.1-0.5,14.8L8.5,89.5c-2.7,7.1-1.7,14.8,2.6,21.1c4.3,6.3,11.2,9.9,18.8,9.9     h27c7.6,0,14.5-3.6,18.8-9.9c4.3-6.3,5.3-14,2.6-21.1l-8.3-19.8c-1.7-4.1-1.9-8.7-0.6-12.9l1.7-5.3c2.1-6.6,2.1-13.5,0-20.1     c-0.2-0.8-0.9-0.7-1.1-0.7c-0.3,0-0.9,0.2-0.9,1c0,7.8-6.3,14.1-14.1,14.1c-3.4,0-6.1-2.6-6.2-5.9l3,0c0,1.6,1.5,2.9,3.2,2.9     c6.1,0,11.1-5,11.1-11.1c0-2,1.4-3.7,3.4-4c2-0.3,3.8,0.8,4.5,2.8c2.2,7.1,2.2,14.7,0,21.9l-1.7,5.3c-1.1,3.5-0.9,7.4,0.5,10.8     l8.3,19.9c3,8.1,2,16.8-2.9,23.9C73.4,119.4,65.6,123.5,57,123.5z" fill="#62355C"/></g></g><g><g><path d="M52,55.9H35c-0.8,0-1.5-0.7-1.5-1.5v0c0-0.8,0.7-1.5,1.5-1.5h17c0.8,0,1.5,0.7,1.5,1.5v0     C53.5,55.3,52.8,55.9,52,55.9z" fill="#7E7784"/></g></g><g><g><path d="M52,67.9H35c-0.8,0-1.5-0.7-1.5-1.5v0c0-0.8,0.7-1.5,1.5-1.5h17c0.8,0,1.5,0.7,1.5,1.5v0     C53.5,67.3,52.8,67.9,52,67.9z" fill="#7E7784"/></g></g><g><g><path d="M52,81.9H35c-0.8,0-1.5-0.7-1.5-1.5l0,0c0-0.8,0.7-1.5,1.5-1.5h17c0.8,0,1.5,0.7,1.5,1.5l0,0     C53.5,81.3,52.8,81.9,52,81.9z" fill="#7E7784"/></g></g><g><g><path d="M51.8,94.2l-16,2.4c-1.2,0.2-2.3-0.8-2.3-2v-5.7c0-1.1,0.9-2,2-2h16c1.1,0,2,0.9,2,2v3.3     C53.5,93.2,52.7,94.1,51.8,94.2z" fill="#7E7784"/></g></g><g><g><path d="M35.5,98.1c-1.9,0-3.5-1.6-3.5-3.5v-5.7c0-1.9,1.6-3.5,3.5-3.5h16c1.9,0,3.5,1.6,3.5,3.5v3.3     c0,1.7-1.3,3.2-3,3.5l-16,2.4C35.8,98.1,35.6,98.1,35.5,98.1z M35.5,88.4c-0.3,0-0.5,0.2-0.5,0.5v5.7c0,0.3,0.3,0.5,0.6,0.5     l16-2.4c0.2,0,0.4-0.2,0.4-0.5v-3.3c0-0.3-0.2-0.5-0.5-0.5H35.5z" fill="#62355C"/></g></g><g><g><circle cx="65.5" cy="86.8" fill="#7E7784" r="3"/></g></g><g><g><circle cx="72.5" cy="92.8" fill="#7E7784" r="3"/></g></g><g><g><path d="M54.9,91.9l-2.8-1.1l5.3-12.9c0.4-0.9,0.5-1.8,0.5-2.7V58.9h3v16.3c0,1.3-0.3,2.7-0.8,3.9L54.9,91.9z" fill="#62355C"/></g></g><g><g><circle cx="43.5" cy="25.5" fill="#FFFFFF" r="1"/></g></g><g><g><circle cx="43.5" cy="36.5" fill="#FFFFFF" r="1"/></g></g><g><g><circle cx="40.5" cy="13.5" fill="#FFFFFF" r="1"/></g></g><g><g><circle cx="46.5" cy="13.5" fill="#FFFFFF" r="1"/></g></g></g></svg>